<svg width="106" height="18" viewBox="0 0 106 18" fill="none" xmlns="http://www.w3.org/2000/svg">
<path d="M9.44425 3.16669H4.55591C2.43258 3.16669 1.16675 4.43252 1.16675 6.55585V11.4384C1.16675 13.5675 2.43258 14.8334 4.55591 14.8334H9.43841C11.5617 14.8334 12.8276 13.5675 12.8276 11.4442V6.55585C12.8334 4.43252 11.5676 3.16669 9.44425 3.16669ZM10.5001 9.43752H4.55591L6.31175 11.1934C6.48091 11.3625 6.48091 11.6425 6.31175 11.8117C6.22425 11.8992 6.11341 11.94 6.00258 11.94C5.89175 11.94 5.78091 11.8992 5.69341 11.8117L3.19091 9.30919C3.10925 9.22752 3.06258 9.11669 3.06258 9.00002C3.06258 8.88335 3.10925 8.77252 3.19091 8.69085L5.69341 6.18835C5.86258 6.01919 6.14258 6.01919 6.31175 6.18835C6.48091 6.35752 6.48091 6.63752 6.31175 6.80669L4.55591 8.56252H10.5001C10.7392 8.56252 10.9376 8.76085 10.9376 9.00002C10.9376 9.23919 10.7392 9.43752 10.5001 9.43752Z" fill="#999999"/>
<path d="M29.0717 13L29.0597 7.432L26.2997 12.04H25.6037L22.8437 7.504V13H21.3677V4.6H22.6517L25.9757 10.156L29.2637 4.6H30.5357L30.5597 13H29.0717ZM35.5984 13.084C34.9504 13.084 34.3664 12.944 33.8464 12.664C33.3264 12.384 32.9184 11.996 32.6224 11.5C32.3344 10.996 32.1904 10.428 32.1904 9.796C32.1904 9.164 32.3344 8.6 32.6224 8.104C32.9184 7.608 33.3264 7.22 33.8464 6.94C34.3664 6.66 34.9504 6.52 35.5984 6.52C36.2544 6.52 36.8424 6.66 37.3624 6.94C37.8824 7.22 38.2864 7.608 38.5744 8.104C38.8704 8.6 39.0184 9.164 39.0184 9.796C39.0184 10.428 38.8704 10.996 38.5744 11.5C38.2864 11.996 37.8824 12.384 37.3624 12.664C36.8424 12.944 36.2544 13.084 35.5984 13.084ZM35.5984 11.8C36.1504 11.8 36.6064 11.616 36.9664 11.248C37.3264 10.88 37.5064 10.396 37.5064 9.796C37.5064 9.196 37.3264 8.712 36.9664 8.344C36.6064 7.976 36.1504 7.792 35.5984 7.792C35.0464 7.792 34.5904 7.976 34.2304 8.344C33.8784 8.712 33.7024 9.196 33.7024 9.796C33.7024 10.396 33.8784 10.88 34.2304 11.248C34.5904 11.616 35.0464 11.8 35.5984 11.8ZM40.5002 6.592H42.0002V10.816L45.5402 6.592H46.9082V13H45.4082V8.776L41.8802 13H40.5002V6.592ZM55.7944 6.52C56.4184 6.52 56.9744 6.656 57.4624 6.928C57.9584 7.2 58.3464 7.584 58.6264 8.08C58.9064 8.576 59.0464 9.148 59.0464 9.796C59.0464 10.444 58.9064 11.02 58.6264 11.524C58.3464 12.02 57.9584 12.404 57.4624 12.676C56.9744 12.948 56.4184 13.084 55.7944 13.084C54.9304 13.084 54.2464 12.796 53.7424 12.22V15.328H52.2424V6.592H53.6704V7.432C53.9184 7.128 54.2224 6.9 54.5824 6.748C54.9504 6.596 55.3544 6.52 55.7944 6.52ZM55.6264 11.8C56.1784 11.8 56.6304 11.616 56.9824 11.248C57.3424 10.88 57.5224 10.396 57.5224 9.796C57.5224 9.196 57.3424 8.712 56.9824 8.344C56.6304 7.976 56.1784 7.792 55.6264 7.792C55.2664 7.792 54.9424 7.876 54.6544 8.044C54.3664 8.204 54.1384 8.436 53.9704 8.74C53.8024 9.044 53.7184 9.396 53.7184 9.796C53.7184 10.196 53.8024 10.548 53.9704 10.852C54.1384 11.156 54.3664 11.392 54.6544 11.56C54.9424 11.72 55.2664 11.8 55.6264 11.8ZM62.8452 6.52C63.7892 6.52 64.5092 6.748 65.0052 7.204C65.5092 7.652 65.7612 8.332 65.7612 9.244V13H64.3452V12.22C64.1612 12.5 63.8972 12.716 63.5532 12.868C63.2172 13.012 62.8092 13.084 62.3292 13.084C61.8492 13.084 61.4292 13.004 61.0692 12.844C60.7092 12.676 60.4292 12.448 60.2292 12.16C60.0372 11.864 59.9412 11.532 59.9412 11.164C59.9412 10.588 60.1532 10.128 60.5772 9.784C61.0092 9.432 61.6852 9.256 62.6052 9.256H64.2612V9.16C64.2612 8.712 64.1252 8.368 63.8532 8.128C63.5892 7.888 63.1932 7.768 62.6652 7.768C62.3052 7.768 61.9492 7.824 61.5972 7.936C61.2532 8.048 60.9612 8.204 60.7212 8.404L60.1332 7.312C60.4692 7.056 60.8732 6.86 61.3452 6.724C61.8172 6.588 62.3172 6.52 62.8452 6.52ZM62.6412 11.992C63.0172 11.992 63.3492 11.908 63.6372 11.74C63.9332 11.564 64.1412 11.316 64.2612 10.996V10.252H62.7132C61.8492 10.252 61.4172 10.536 61.4172 11.104C61.4172 11.376 61.5252 11.592 61.7412 11.752C61.9572 11.912 62.2572 11.992 62.6412 11.992ZM70.5334 13.084C69.8694 13.084 69.2734 12.944 68.7454 12.664C68.2174 12.384 67.8054 11.996 67.5094 11.5C67.2134 10.996 67.0654 10.428 67.0654 9.796C67.0654 9.164 67.2134 8.6 67.5094 8.104C67.8054 7.608 68.2134 7.22 68.7334 6.94C69.2614 6.66 69.8614 6.52 70.5334 6.52C71.1654 6.52 71.7174 6.648 72.1894 6.904C72.6694 7.16 73.0294 7.528 73.2694 8.008L72.1174 8.68C71.9334 8.384 71.7014 8.164 71.4214 8.02C71.1494 7.868 70.8494 7.792 70.5214 7.792C69.9614 7.792 69.4974 7.976 69.1294 8.344C68.7614 8.704 68.5774 9.188 68.5774 9.796C68.5774 10.404 68.7574 10.892 69.1174 11.26C69.4854 11.62 69.9534 11.8 70.5214 11.8C70.8494 11.8 71.1494 11.728 71.4214 11.584C71.7014 11.432 71.9334 11.208 72.1174 10.912L73.2694 11.584C73.0214 12.064 72.6574 12.436 72.1774 12.7C71.7054 12.956 71.1574 13.084 70.5334 13.084ZM78.4223 13L76.7783 10.78L75.1223 13H73.4663L75.9623 9.748L73.5743 6.592H75.2423L76.8143 8.692L78.3863 6.592H80.0063L77.6063 9.724L80.1143 13H78.4223ZM83.8328 13.084C83.1848 13.084 82.6008 12.944 82.0808 12.664C81.5608 12.384 81.1528 11.996 80.8568 11.5C80.5688 10.996 80.4248 10.428 80.4248 9.796C80.4248 9.164 80.5688 8.6 80.8568 8.104C81.1528 7.608 81.5608 7.22 82.0808 6.94C82.6008 6.66 83.1848 6.52 83.8328 6.52C84.4888 6.52 85.0768 6.66 85.5968 6.94C86.1168 7.22 86.5208 7.608 86.8088 8.104C87.1048 8.6 87.2528 9.164 87.2528 9.796C87.2528 10.428 87.1048 10.996 86.8088 11.5C86.5208 11.996 86.1168 12.384 85.5968 12.664C85.0768 12.944 84.4888 13.084 83.8328 13.084ZM83.8328 11.8C84.3848 11.8 84.8408 11.616 85.2008 11.248C85.5608 10.88 85.7408 10.396 85.7408 9.796C85.7408 9.196 85.5608 8.712 85.2008 8.344C84.8408 7.976 84.3848 7.792 83.8328 7.792C83.2808 7.792 82.8248 7.976 82.4648 8.344C82.1128 8.712 81.9368 9.196 81.9368 9.796C81.9368 10.396 82.1128 10.88 82.4648 11.248C82.8248 11.616 83.2808 11.8 83.8328 11.8ZM95.5043 11.728V14.428H94.1003V13H89.1562V14.428H87.7643V11.728H88.0643C88.4723 11.712 88.7483 11.452 88.8923 10.948C89.0443 10.436 89.1443 9.716 89.1923 8.788L89.2763 6.592H94.5563V11.728H95.5043ZM90.5603 8.896C90.5283 9.632 90.4683 10.232 90.3803 10.696C90.2923 11.16 90.1323 11.504 89.9003 11.728H93.0563V7.864H90.5963L90.5603 8.896ZM99.9639 8.704C100.78 8.704 101.404 8.888 101.836 9.256C102.268 9.624 102.484 10.144 102.484 10.816C102.484 11.52 102.244 12.064 101.764 12.448C101.292 12.832 100.62 13.02 99.7479 13.012L96.8439 13V6.592H98.3439V8.692L99.9639 8.704ZM103.312 6.592H104.812V13H103.312V6.592ZM99.6159 11.908C100.056 11.916 100.392 11.824 100.624 11.632C100.856 11.44 100.972 11.16 100.972 10.792C100.972 10.432 100.86 10.168 100.636 10C100.412 9.832 100.072 9.744 99.6159 9.736L98.3439 9.724V11.896L99.6159 11.908Z" fill="#999999"/>
</svg>
