<svg width="112" height="18" viewBox="0 0 112 18" fill="none" xmlns="http://www.w3.org/2000/svg">
<path d="M6.99984 3.16663C3.78567 3.16663 1.1665 5.78579 1.1665 8.99996C1.1665 12.2141 3.78567 14.8333 6.99984 14.8333C10.214 14.8333 12.8332 12.2141 12.8332 8.99996C12.8332 5.78579 10.214 3.16663 6.99984 3.16663ZM9.33317 9.43746H7.43734V11.3333C7.43734 11.5725 7.239 11.7708 6.99984 11.7708C6.76067 11.7708 6.56234 11.5725 6.56234 11.3333V9.43746H4.6665C4.42734 9.43746 4.229 9.23913 4.229 8.99996C4.229 8.76079 4.42734 8.56246 4.6665 8.56246H6.56234V6.66663C6.56234 6.42746 6.76067 6.22913 6.99984 6.22913C7.239 6.22913 7.43734 6.42746 7.43734 6.66663V8.56246H9.33317C9.57234 8.56246 9.77067 8.76079 9.77067 8.99996C9.77067 9.23913 9.57234 9.43746 9.33317 9.43746Z" fill="black"/>
<path d="M28.972 4.6V13H27.412V9.4H23.068V13H21.508V4.6H23.068V8.068H27.412V4.6H28.972ZM34.0163 13.084C33.3683 13.084 32.7843 12.944 32.2643 12.664C31.7443 12.384 31.3363 11.996 31.0403 11.5C30.7523 10.996 30.6083 10.428 30.6083 9.796C30.6083 9.164 30.7523 8.6 31.0403 8.104C31.3363 7.608 31.7443 7.22 32.2643 6.94C32.7843 6.66 33.3683 6.52 34.0163 6.52C34.6723 6.52 35.2603 6.66 35.7803 6.94C36.3003 7.22 36.7043 7.608 36.9923 8.104C37.2883 8.6 37.4363 9.164 37.4363 9.796C37.4363 10.428 37.2883 10.996 36.9923 11.5C36.7043 11.996 36.3003 12.384 35.7803 12.664C35.2603 12.944 34.6723 13.084 34.0163 13.084ZM34.0163 11.8C34.5683 11.8 35.0243 11.616 35.3843 11.248C35.7443 10.88 35.9243 10.396 35.9243 9.796C35.9243 9.196 35.7443 8.712 35.3843 8.344C35.0243 7.976 34.5683 7.792 34.0163 7.792C33.4643 7.792 33.0083 7.976 32.6483 8.344C32.2963 8.712 32.1203 9.196 32.1203 9.796C32.1203 10.396 32.2963 10.88 32.6483 11.248C33.0083 11.616 33.4643 11.8 34.0163 11.8ZM43.5622 9.664C44.3542 9.904 44.7502 10.416 44.7502 11.2C44.7502 11.776 44.5342 12.22 44.1022 12.532C43.6702 12.844 43.0302 13 42.1822 13H38.9182V6.592H42.0502C42.8342 6.592 43.4462 6.736 43.8862 7.024C44.3262 7.312 44.5462 7.72 44.5462 8.248C44.5462 8.576 44.4582 8.86 44.2822 9.1C44.1142 9.34 43.8742 9.528 43.5622 9.664ZM40.3462 9.268H41.9182C42.6942 9.268 43.0822 9 43.0822 8.464C43.0822 7.944 42.6942 7.684 41.9182 7.684H40.3462V9.268ZM42.0622 11.908C42.8862 11.908 43.2982 11.64 43.2982 11.104C43.2982 10.824 43.2022 10.616 43.0102 10.48C42.8182 10.336 42.5182 10.264 42.1102 10.264H40.3462V11.908H42.0622ZM49.4678 8.704C50.2838 8.704 50.9078 8.888 51.3398 9.256C51.7718 9.624 51.9878 10.144 51.9878 10.816C51.9878 11.52 51.7478 12.064 51.2678 12.448C50.7958 12.832 50.1238 13.02 49.2518 13.012L46.3478 13V6.592H47.8478V8.692L49.4678 8.704ZM52.8158 6.592H54.3158V13H52.8158V6.592ZM49.1198 11.908C49.5598 11.916 49.8958 11.824 50.1278 11.632C50.3598 11.44 50.4758 11.16 50.4758 10.792C50.4758 10.432 50.3638 10.168 50.1398 10C49.9158 9.832 49.5758 9.744 49.1198 9.736L47.8478 9.724V11.896L49.1198 11.908ZM56.3322 6.592H57.8322V10.816L61.3722 6.592H62.7402V13H61.2402V8.776L57.7122 13H56.3322V6.592ZM59.4402 5.836C58.7922 5.836 58.2962 5.688 57.9522 5.392C57.6162 5.088 57.4442 4.648 57.4362 4.072H58.4322C58.4402 4.36 58.5282 4.588 58.6962 4.756C58.8722 4.924 59.1162 5.008 59.4282 5.008C59.7322 5.008 59.9722 4.924 60.1482 4.756C60.3322 4.588 60.4282 4.36 60.4362 4.072H61.4562C61.4482 4.648 61.2722 5.088 60.9282 5.392C60.5842 5.688 60.0882 5.836 59.4402 5.836ZM71.6264 6.52C72.2504 6.52 72.8064 6.656 73.2944 6.928C73.7904 7.2 74.1784 7.584 74.4584 8.08C74.7384 8.576 74.8784 9.148 74.8784 9.796C74.8784 10.444 74.7384 11.02 74.4584 11.524C74.1784 12.02 73.7904 12.404 73.2944 12.676C72.8064 12.948 72.2504 13.084 71.6264 13.084C70.7624 13.084 70.0784 12.796 69.5744 12.22V15.328H68.0744V6.592H69.5024V7.432C69.7504 7.128 70.0544 6.9 70.4144 6.748C70.7824 6.596 71.1864 6.52 71.6264 6.52ZM71.4584 11.8C72.0104 11.8 72.4624 11.616 72.8144 11.248C73.1744 10.88 73.3544 10.396 73.3544 9.796C73.3544 9.196 73.1744 8.712 72.8144 8.344C72.4624 7.976 72.0104 7.792 71.4584 7.792C71.0984 7.792 70.7744 7.876 70.4864 8.044C70.1984 8.204 69.9704 8.436 69.8024 8.74C69.6344 9.044 69.5504 9.396 69.5504 9.796C69.5504 10.196 69.6344 10.548 69.8024 10.852C69.9704 11.156 70.1984 11.392 70.4864 11.56C70.7744 11.72 71.0984 11.8 71.4584 11.8ZM78.6773 6.52C79.6213 6.52 80.3413 6.748 80.8373 7.204C81.3413 7.652 81.5933 8.332 81.5933 9.244V13H80.1773V12.22C79.9933 12.5 79.7293 12.716 79.3853 12.868C79.0493 13.012 78.6413 13.084 78.1613 13.084C77.6813 13.084 77.2613 13.004 76.9013 12.844C76.5413 12.676 76.2613 12.448 76.0613 12.16C75.8693 11.864 75.7733 11.532 75.7733 11.164C75.7733 10.588 75.9853 10.128 76.4093 9.784C76.8413 9.432 77.5173 9.256 78.4373 9.256H80.0933V9.16C80.0933 8.712 79.9573 8.368 79.6853 8.128C79.4213 7.888 79.0253 7.768 78.4973 7.768C78.1373 7.768 77.7813 7.824 77.4293 7.936C77.0853 8.048 76.7933 8.204 76.5533 8.404L75.9653 7.312C76.3013 7.056 76.7053 6.86 77.1773 6.724C77.6493 6.588 78.1493 6.52 78.6773 6.52ZM78.4733 11.992C78.8493 11.992 79.1813 11.908 79.4693 11.74C79.7653 11.564 79.9733 11.316 80.0933 10.996V10.252H78.5453C77.6813 10.252 77.2493 10.536 77.2493 11.104C77.2493 11.376 77.3573 11.592 77.5733 11.752C77.7893 11.912 78.0893 11.992 78.4733 11.992ZM86.3654 13.084C85.7014 13.084 85.1054 12.944 84.5774 12.664C84.0494 12.384 83.6374 11.996 83.3414 11.5C83.0454 10.996 82.8974 10.428 82.8974 9.796C82.8974 9.164 83.0454 8.6 83.3414 8.104C83.6374 7.608 84.0454 7.22 84.5654 6.94C85.0934 6.66 85.6934 6.52 86.3654 6.52C86.9974 6.52 87.5494 6.648 88.0214 6.904C88.5014 7.16 88.8614 7.528 89.1014 8.008L87.9494 8.68C87.7654 8.384 87.5334 8.164 87.2534 8.02C86.9814 7.868 86.6814 7.792 86.3534 7.792C85.7934 7.792 85.3294 7.976 84.9614 8.344C84.5934 8.704 84.4094 9.188 84.4094 9.796C84.4094 10.404 84.5894 10.892 84.9494 11.26C85.3174 11.62 85.7854 11.8 86.3534 11.8C86.6814 11.8 86.9814 11.728 87.2534 11.584C87.5334 11.432 87.7654 11.208 87.9494 10.912L89.1014 11.584C88.8534 12.064 88.4894 12.436 88.0094 12.7C87.5374 12.956 86.9894 13.084 86.3654 13.084ZM94.2543 13L92.6103 10.78L90.9543 13H89.2983L91.7943 9.748L89.4063 6.592H91.0743L92.6463 8.692L94.2183 6.592H95.8383L93.4383 9.724L95.9463 13H94.2543ZM99.6648 13.084C99.0168 13.084 98.4328 12.944 97.9128 12.664C97.3928 12.384 96.9848 11.996 96.6888 11.5C96.4008 10.996 96.2568 10.428 96.2568 9.796C96.2568 9.164 96.4008 8.6 96.6888 8.104C96.9848 7.608 97.3928 7.22 97.9128 6.94C98.4328 6.66 99.0168 6.52 99.6648 6.52C100.321 6.52 100.909 6.66 101.429 6.94C101.949 7.22 102.353 7.608 102.641 8.104C102.937 8.6 103.085 9.164 103.085 9.796C103.085 10.428 102.937 10.996 102.641 11.5C102.353 11.996 101.949 12.384 101.429 12.664C100.909 12.944 100.321 13.084 99.6648 13.084ZM99.6648 11.8C100.217 11.8 100.673 11.616 101.033 11.248C101.393 10.88 101.573 10.396 101.573 9.796C101.573 9.196 101.393 8.712 101.033 8.344C100.673 7.976 100.217 7.792 99.6648 7.792C99.1128 7.792 98.6568 7.976 98.2968 8.344C97.9448 8.712 97.7688 9.196 97.7688 9.796C97.7688 10.396 97.9448 10.88 98.2968 11.248C98.6568 11.616 99.1128 11.8 99.6648 11.8ZM111.336 11.728V14.428H109.932V13H104.988V14.428H103.596V11.728H103.896C104.304 11.712 104.58 11.452 104.724 10.948C104.876 10.436 104.976 9.716 105.024 8.788L105.108 6.592H110.388V11.728H111.336ZM106.392 8.896C106.36 9.632 106.3 10.232 106.212 10.696C106.124 11.16 105.964 11.504 105.732 11.728H108.888V7.864H106.428L106.392 8.896Z" fill="black"/>
</svg>
